# xmcd
#
# Track frame offsets:
# 150
# 21317
# 39815
# 87692
#
# Disc length: 1503 seconds
#
#
# Revision: 0
# Processed by: cddbd v1.5.1PL0 Copyright (c) Steve Scherf et al.
# Submitted via: FreeRIP 2.51 
#
DISCID=2905dd04
DTITLE=Pet Shop Boys - Somewhere CD2
DYEAR=1997
DGENRE=rock
TTITLE0=Somewhere orchestral version
TTITLE1=Disco Potential
TTITLE2=Somewhere Trouser enthousiasts mix
TTITLE3=Somewhere Forthright dub
EXTD=
EXTT0=
EXTT1=
EXTT2=
EXTT3=
PLAYORDER=
